<svg xmlns="http://www.w3.org/2000/svg" viewBox="0 0 72 72" shape-rendering="geometricPrecision"><defs><linearGradient id="b" x1="8" y1="8" x2="64" y2="64" gradientUnits="userSpaceOnUse"><stop offset="0" stop-color="#2563eb"/><stop offset="0.36" stop-color="#7c3aed"/><stop offset="0.72" stop-color="#c29a13"/><stop offset="1" stop-color="#991b1b"/></linearGradient><linearGradient id="k" x1="22" y1="18" x2="51" y2="54" gradientUnits="userSpaceOnUse"><stop offset="0" stop-color="#020617"/><stop offset="0.56" stop-color="#030712"/><stop offset="1" stop-color="#111827"/></linearGradient><radialGradient id="c" cx="35.65" cy="36" r="7.3" gradientUnits="userSpaceOnUse"><stop offset="0" stop-color="#c084fc"/><stop offset="0.22" stop-color="#7c3aed"/><stop offset="0.48" stop-color="#2563eb"/><stop offset="0.73" stop-color="#c29a13"/><stop offset="1" stop-color="#b91c1c"/></radialGradient><filter id="g" x="-25%" y="-25%" width="150%" height="150%" color-interpolation-filters="sRGB"><feDropShadow dx="0" dy="0" stdDeviation="1.55" flood-color="#7c3aed" flood-opacity="0.34"/></filter><filter id="ks" x="-12%" y="-12%" width="124%" height="124%" color-interpolation-filters="sRGB"><feDropShadow dx="0" dy="0.7" stdDeviation="0.72" flood-color="#cbd5e1" flood-opacity="0.48"/></filter></defs><rect x="6" y="6" width="60" height="60" rx="17" fill="#fff"/><rect x="8" y="8" width="56" height="56" rx="15" fill="none" stroke="url(#b)" stroke-width="3.25" opacity="0.42" filter="url(#g)"/><rect x="8" y="8" width="56" height="56" rx="15" fill="none" stroke="url(#b)" stroke-width="3.25"/><g opacity="0.98"><circle cx="35.65" cy="36" r="7.18" fill="#f8fafc" opacity="0.92"/><circle cx="35.65" cy="36" r="6.12" fill="url(#c)"/><circle cx="35.65" cy="36" r="5.58" fill="none" stroke="#f8fafc" stroke-width="1.18" opacity="0.9"/><circle cx="35.65" cy="36" r="4.48" fill="none" stroke="#2563eb" stroke-width="1.42" opacity="0.98"/><circle cx="35.65" cy="36" r="3.12" fill="none" stroke="#7c3aed" stroke-width="1.25" opacity="0.98"/><circle cx="35.65" cy="36" r="2" fill="#7c3aed" opacity="0.96"/><circle cx="35.65" cy="36" r="0.9" fill="#020617" opacity="0.42"/><path d="M31.25 40.95A6.35 6.35 0 0 0 40.12 41.05" fill="none" stroke="#b91c1c" stroke-width="1.22" opacity="0.92" stroke-linecap="round"/><path d="M40.72 31.52A6.25 6.25 0 0 0 41.2 38.35" fill="none" stroke="#c29a13" stroke-width="1.1" opacity="0.92" stroke-linecap="round"/></g><rect x="22.25" y="18.75" width="8.4" height="34.5" fill="url(#k)" filter="url(#ks)"/><path d="M31.15 32.42L42.75 18.75H51L38.28 35.72C37.78 36.38 37.78 36.7 38.28 37.36L51.05 53.25H42.65L31.15 39.58L35.65 36ZM35.65 29.82A6.18 6.18 0 1 1 35.65 42.18A6.18 6.18 0 1 1 35.65 29.82Z" fill="url(#k)" fill-rule="evenodd" filter="url(#ks)"/><path d="M38.05 35.7L51 18.75H46.25L34.7 33.05Z" fill="#020617" opacity="0.1"/></svg>
