<svg xmlns="http://www.w3.org/2000/svg" viewBox="0 0 72 72" shape-rendering="geometricPrecision"><defs><linearGradient id="b" x1="8" y1="8" x2="64" y2="64" gradientUnits="userSpaceOnUse"><stop offset="0" stop-color="#2563eb"/><stop offset="0.36" stop-color="#7c3aed"/><stop offset="0.72" stop-color="#c29a13"/><stop offset="1" stop-color="#991b1b"/></linearGradient><linearGradient id="k" x1="22" y1="18" x2="50" y2="54" gradientUnits="userSpaceOnUse"><stop offset="0" stop-color="#fff"/><stop offset="0.52" stop-color="#f8fafc"/><stop offset="1" stop-color="#dbeafe"/></linearGradient><radialGradient id="c" cx="35.85" cy="36" r="7.4" gradientUnits="userSpaceOnUse"><stop offset="0" stop-color="#c084fc"/><stop offset="0.22" stop-color="#7c3aed"/><stop offset="0.48" stop-color="#2563eb"/><stop offset="0.72" stop-color="#c29a13"/><stop offset="1" stop-color="#b91c1c"/></radialGradient><clipPath id="cc"><circle cx="35.85" cy="36" r="5.85"/></clipPath><filter id="g" x="-25%" y="-25%" width="150%" height="150%" color-interpolation-filters="sRGB"><feDropShadow dx="0" dy="0" stdDeviation="1.55" flood-color="#7c3aed" flood-opacity="0.34"/></filter><filter id="ks" x="-12%" y="-12%" width="124%" height="124%" color-interpolation-filters="sRGB"><feDropShadow dx="0" dy="0.65" stdDeviation="0.65" flood-color="#020617" flood-opacity="0.42"/></filter></defs><rect x="6" y="6" width="60" height="60" rx="17" fill="#000"/><rect x="8" y="8" width="56" height="56" rx="15" fill="none" stroke="url(#b)" stroke-width="3.25" opacity="0.42" filter="url(#g)"/><rect x="8" y="8" width="56" height="56" rx="15" fill="none" stroke="url(#b)" stroke-width="3.25"/><circle cx="35.85" cy="36" r="17.8" fill="#7c3aed" opacity="0.055"/><path d="M22.45 18.65H30.55V31.45L41.35 18.65H50.35L37.55 35.78L50.6 53.35H41.45L30.55 40.35V53.35H22.45ZM30.55 32.3L35.22 36L30.55 39.7ZM35.85 30.15A5.85 5.85 0 1 1 35.85 41.85A5.85 5.85 0 1 1 35.85 30.15Z" fill="url(#k)" fill-rule="evenodd" filter="url(#ks)"/><path d="M37.35 35.82L50.35 18.65H45.65L34.35 33.15Z" fill="#fff" opacity="0.1"/><g clip-path="url(#cc)"><circle cx="35.85" cy="36" r="5.85" fill="url(#c)"/><circle cx="35.85" cy="36" r="5.55" fill="none" stroke="#020617" stroke-width="1.15" opacity="0.82"/><circle cx="35.85" cy="36" r="4.38" fill="none" stroke="#2563eb" stroke-width="1.45" opacity="0.96"/><circle cx="35.85" cy="36" r="3.08" fill="none" stroke="#7c3aed" stroke-width="1.25" opacity="0.96"/><circle cx="35.85" cy="36" r="1.92" fill="#7c3aed" opacity="0.95"/><circle cx="35.85" cy="36" r="0.88" fill="#f8fafc" opacity="0.42"/><path d="M31.35 40.95A6.4 6.4 0 0 0 40.72 40.95" fill="none" stroke="#b91c1c" stroke-width="1.22" opacity="0.9" stroke-linecap="round"/><path d="M40.95 31.55A6.25 6.25 0 0 0 41.45 38.4" fill="none" stroke="#c29a13" stroke-width="1.1" opacity="0.92" stroke-linecap="round"/></g></svg>
