<svg xmlns="http://www.w3.org/2000/svg" viewBox="0 0 1024 1024" shape-rendering="geometricPrecision"><defs><linearGradient id="b" x1="64" y1="960" x2="960" y2="64" gradientUnits="userSpaceOnUse"><stop offset="0" stop-color="#1d4ed8"/><stop offset=".25" stop-color="#4c1d95"/><stop offset=".5" stop-color="#b08d1a"/><stop offset=".75" stop-color="#991b1b"/><stop offset="1" stop-color="#6d28d9"/></linearGradient><linearGradient id="s" x1="612" y1="512" x2="784" y2="512" gradientUnits="userSpaceOnUse"><stop offset="0" stop-color="#e9d5ff"/><stop offset=".16" stop-color="#2563eb"/><stop offset=".34" stop-color="#4c1d95"/><stop offset=".52" stop-color="#b08d1a"/><stop offset=".72" stop-color="#991b1b"/><stop offset="1" stop-color="#6d28d9"/></linearGradient><radialGradient id="d" cx="456" cy="512" r="42" gradientUnits="userSpaceOnUse"><stop offset="0" stop-color="#fff"/><stop offset=".48" stop-color="#f8fafc"/><stop offset=".72" stop-color="#525252"/><stop offset="1" stop-color="#000"/></radialGradient></defs><path d="M304 0h416c167.9 0 304 136.1 304 304v416c0 167.9-136.1 304-304 304H304C136.1 1024 0 887.9 0 720V304C0 136.1 136.1 0 304 0Zm0 48h416c141.4 0 256 114.6 256 256v416c0 141.4-114.6 256-256 256H304C162.6 976 48 861.4 48 720V304C48 162.6 162.6 48 304 48Z" fill="url(#b)" fill-rule="evenodd"/><path d="M304 48h416c141.4 0 256 114.6 256 256v416c0 141.4-114.6 256-256 256H304C162.6 976 48 861.4 48 720V304C48 162.6 162.6 48 304 48Z" fill="#000"/><rect x="278" y="192" width="148" height="640" fill="#fff"/><polygon points="456,512 612,512 767,832 604,832" fill="#fff"/><polygon points="604,192 767,192 612,512 456,512" fill="#fff"/><path d="M612 512a178 178 0 0 0 0-178l155-142a358 358 0 0 1 0 640Z" fill="url(#s)" opacity=".93"/><circle cx="456" cy="512" r="36" fill="url(#d)"/></svg>
